<?xml version="1.0" encoding="utf-8"?>
<!-- Generator: Adobe Illustrator 25.0.1, SVG Export Plug-In . SVG Version: 6.00 Build 0)  -->
<svg version="1.1" id="Layer_1" xmlns="http://www.w3.org/2000/svg" xmlns:xlink="http://www.w3.org/1999/xlink" x="0px" y="0px"
	 viewBox="0 0 550 425" style="enable-background:new 0 0 450 325;" xml:space="preserve">
<style type="text/css">
	.st0{fill:rgba(255, 255, 255, 0.15);}
</style>
<g>
	<path class="st0" d="M155.55,14.25h-11.67c-9.67,0-17.51,7.84-17.51,17.51v67.87c-11.55-6.91-25.05-10.89-39.48-10.89
		c-42.54,0-77.02,34.48-77.02,77.02s34.48,77.02,77.02,77.02c15.38,0,29.7-4.53,41.73-12.3c3,5.34,8.71,8.95,15.26,8.95h11.67
		c9.67,0,17.51-7.84,17.51-17.51V31.75C173.05,22.08,165.21,14.25,155.55,14.25z M90.98,192.08c-14.12,0-26.32-11.55-26.32-26.32
		c0-14.76,12.2-26.32,26.32-26.32c14.12,0,26.32,11.55,26.32,26.32C117.3,180.53,105.1,192.08,90.98,192.08z"/>
	<path class="st0" d="M232.93,239.44h-11.67c-9.67,0-17.51-7.84-17.51-17.51V110.54c0-9.67,7.84-17.51,17.51-17.51h11.67
		c9.67,0,17.51,7.84,17.51,17.51v111.39C250.44,231.6,242.6,239.44,232.93,239.44z"/>
	<path class="st0" d="M200.78,40.56c0-14.76,12.2-26.32,26.32-26.32c14.12,0,26.32,11.55,26.32,26.32
		c0,14.77-12.2,26.32-26.32,26.32C212.97,66.89,200.78,55.33,200.78,40.56z"/>
	<path class="st0" d="M398.56,287.5"/>
	<path class="st0" d="M295.15,278.95"/>
	<path class="st0" d="M440.09,221.93V110.54c0-9.67-7.84-17.51-17.51-17.51h-11.67c-5.78,0-10.9,2.82-14.09,7.14
		c-12.24-8.2-26.96-12.99-42.81-12.99c-42.54,0-77.02,34.48-77.02,77.02s34.48,77.02,77.02,77.02c14.29,0,27.67-3.91,39.14-10.69
		c-1.65,15.12-10.97,43.98-58.92,34.51l-13.79-3.85c-7.49-3.17-15.95-0.72-20.69,5.44c-0.9,1.16-1.66,2.46-2.26,3.87l-4.54,10.75
		c-0.86,2.04-1.31,4.16-1.38,6.25c-0.23,7.03,3.82,13.79,10.69,16.69l8.66,3.66C446.69,343.8,440.09,221.93,440.09,221.93z
		 M358.11,190.52c-14.12,0-26.32-11.55-26.32-26.32c0-14.76,12.2-26.32,26.32-26.32c14.12,0,26.32,11.55,26.32,26.32
		C384.43,178.97,372.23,190.52,358.11,190.52z"/>
	<path class="st0" d="M331.79,40.56c0-14.76,12.2-26.32,26.32-26.32c14.12,0,26.32,11.55,26.32,26.32
		c0,14.77-12.2,26.32-26.32,26.32C343.99,66.89,331.79,55.33,331.79,40.56z"/>
	<path class="st0" d="M266.28,40.56c0-14.76,12.2-26.32,26.32-26.32c14.12,0,26.32,11.55,26.32,26.32
		c0,14.77-12.2,26.32-26.32,26.32C278.48,66.89,266.28,55.33,266.28,40.56z"/>
</g>
</svg>
